<svg width="597" height="600" viewBox="0 0 597 600" fill="none" xmlns="http://www.w3.org/2000/svg">
<g clip-path="url(#clip0_613_5777)">
<path d="M278.146 556.291C431.761 556.291 556.291 431.761 556.291 278.146C556.291 124.53 431.761 0 278.146 0C124.53 0 0 124.53 0 278.146C0 431.761 124.53 556.291 278.146 556.291Z" fill="url(#paint0_linear_613_5777)"/>
<path style="mix-blend-mode:hard-light" opacity="0.25" d="M550.154 219.868C529.94 247.238 503.872 273.234 470.383 294.987C366.524 362.447 297.636 275.703 270.58 235.851C243.547 196 165.608 139.481 72.0395 136.644C60.8373 136.312 50.2503 135.418 40.22 134.026C88.9707 53.6806 177.29 0 278.146 0C379.001 0 462.445 50.7711 511.972 127.467C529.923 155.263 543.051 186.454 550.154 219.868Z" fill="url(#paint1_linear_613_5777)"/>
<path style="mix-blend-mode:hard-light" opacity="0.25" d="M556.291 278.146C556.291 407.372 468.156 516.017 348.739 547.244C310.226 507.487 262.961 477.302 216.693 464.339C22.9566 410.098 47.4711 271.86 94.9961 203.695C142.521 135.53 227.635 128.872 313.97 155.874C376.72 175.472 440.081 173.896 489.258 141.596C496.913 136.55 504.501 131.844 511.972 127.467C540.011 170.892 556.291 222.611 556.291 278.146Z" fill="url(#paint2_linear_613_5777)"/>
<path style="mix-blend-mode:hard-light" opacity="0.25" d="M534.929 538.9C616.397 457.432 616.397 325.346 534.929 243.878C453.461 162.41 321.375 162.41 239.908 243.878C158.44 325.346 158.44 457.432 239.908 538.9C321.375 620.367 453.461 620.367 534.929 538.9Z" fill="url(#paint3_linear_613_5777)"/>
<path style="mix-blend-mode:hard-light" opacity="0.25" d="M119.205 253.443C185.041 253.443 238.411 200.073 238.411 134.237C238.411 68.402 185.041 15.032 119.205 15.032C53.37 15.032 0 68.402 0 134.237C0 200.073 53.37 253.443 119.205 253.443Z" fill="url(#paint4_linear_613_5777)"/>
<path d="M167.143 211.476C175.521 229.759 180.231 247.058 174.062 254.772C173.698 255.23 173.299 255.647 172.868 256.029C168.113 260.213 158.77 260.308 142.992 254.076C101.003 237.486 99.0099 208.863 90.5197 180.909C82.1461 153.306 52.9038 157.971 52.1584 158.096C120.301 134.359 152.933 180.478 167.148 211.476H167.143Z" fill="url(#paint5_linear_613_5777)"/>
<path d="M174.062 254.776C173.698 255.234 173.299 255.652 172.868 256.033C164.979 251.283 149.88 241.208 142.754 229.898C139.396 224.56 136.572 218.557 133.577 212.213C127.929 200.202 122.074 187.788 111.86 178.26L113 177.035C123.448 186.787 129.361 199.349 135.086 211.503C138.054 217.811 140.855 223.76 144.164 229.009C151.11 240.041 166.367 250.152 174.058 254.781L174.062 254.776Z" fill="url(#paint6_linear_613_5777)"/>
<path d="M159.852 218.947C159.358 220.164 159.039 220.851 159.003 220.927C158.873 220.254 158.747 219.589 158.622 218.947C153.018 190.244 145.529 187.249 123.071 162.142C100.101 136.464 113.31 112.538 113.31 112.538C190.261 134.772 165.082 206.115 159.852 218.947Z" fill="url(#paint7_linear_613_5777)"/>
<path d="M159.852 218.947C159.358 220.164 159.039 220.851 159.003 220.927C158.873 220.254 158.747 219.589 158.622 218.947C161.113 194.136 146.144 165.02 141.443 159.794C136.576 154.383 133.577 146.944 132.446 144.142C132.253 143.679 132.078 143.235 132.019 143.132L133.106 142.517C133.2 142.683 133.326 142.993 133.604 143.675C134.713 146.423 137.654 153.714 142.377 158.954C148.34 165.581 162.146 194.837 159.861 218.947H159.852Z" fill="url(#paint8_linear_613_5777)"/>
<g style="mix-blend-mode:hard-light">
<path d="M169.482 70.275H497.708C509.979 70.275 519.937 80.238 519.937 92.5042V186.414C519.937 198.684 509.974 208.647 497.703 208.647H169.478C157.207 208.647 147.249 198.684 147.249 186.418V92.5042C147.249 80.2335 157.212 70.2705 169.482 70.2705V70.275Z" fill="#F4F4F4"/>
</g>
<path d="M306.499 370.403H166.766V375.077H306.499V370.403Z" fill="white"/>
<path d="M270.54 348.587H166.766V353.261H270.54V348.587Z" fill="url(#paint9_linear_613_5777)"/>
<path d="M278.895 359.493H166.766V364.167H278.895V359.493Z" fill="url(#paint10_linear_613_5777)"/>
<path d="M239.524 370.403H166.766V375.077H239.524V370.403Z" fill="url(#paint11_linear_613_5777)"/>
<g style="mix-blend-mode:hard-light">
<path d="M97.7618 216.146H298.979C308.079 216.146 315.47 223.536 315.47 232.637V414.112C315.47 423.213 308.079 430.603 298.979 430.603H97.7618C88.6564 430.603 81.2661 423.213 81.2661 414.107V232.637C81.2661 223.536 88.6564 216.146 97.7573 216.146H97.7618Z" fill="#F4F4F4"/>
</g>
<path d="M168.068 281.104C172.814 267.837 168.531 253.532 158.397 244.912C155.982 242.856 153.234 241.122 150.194 239.807C149.525 239.515 148.838 239.246 148.142 238.999C141.129 236.489 133.829 236.502 127.229 238.568C117.706 241.549 109.646 248.805 106.028 258.925C104.833 262.265 104.214 265.668 104.11 269.036C103.693 282.927 112.165 296.11 125.954 301.039C143.087 307.168 161.94 298.247 168.068 281.113V281.104ZM128.728 293.267C118.388 289.572 112.035 279.686 112.349 269.274C112.426 266.75 112.893 264.2 113.786 261.695C116.498 254.107 122.541 248.67 129.68 246.434C134.628 244.889 140.101 244.876 145.359 246.757C145.884 246.946 146.396 247.148 146.899 247.363C149.175 248.351 151.24 249.653 153.05 251.193C160.647 257.659 163.857 268.38 160.301 278.33C155.708 291.175 141.569 297.865 128.724 293.267H128.728Z" fill="#90C1FC"/>
<path d="M129.684 246.434L127.229 238.563C117.706 241.544 109.646 248.8 106.028 258.92C104.833 262.261 104.214 265.664 104.11 269.031L112.354 269.278C112.43 266.755 112.897 264.205 113.79 261.699C116.502 254.112 122.546 248.674 129.684 246.438V246.434Z" fill="#4372BD"/>
<path d="M146.903 247.363L150.194 239.802C149.525 239.511 148.838 239.241 148.142 238.994C141.129 236.485 133.829 236.498 127.229 238.563L129.685 246.434C134.633 244.889 140.106 244.876 145.363 246.757C145.889 246.946 146.4 247.148 146.903 247.363Z" fill="#4E85DE"/>
<path d="M158.393 244.907C155.977 242.851 153.229 241.118 150.19 239.802L146.899 247.363C149.175 248.351 151.24 249.653 153.05 251.193L158.393 244.912V244.907Z" fill="#72ACFB"/>
<path d="M272.924 347.985H261.488V387.146H272.924V347.985Z" fill="#72ACFB"/>
<path d="M255.926 358.967H244.494V387.141H255.926V358.967Z" fill="#72ACFB"/>
<path d="M289.411 329.837H277.979V387.146H289.411V329.837Z" fill="#72ACFB"/>
<path d="M287.57 301.206L287.368 299.971L257.196 304.91L247.413 325.756L214.884 327.965L204.342 343.509L179.472 342.894L179.441 344.147L204.997 344.78L215.575 329.173L248.234 326.959L258.049 306.041L287.57 301.206Z" fill="#72ACFB"/>
<path d="M250.695 249.02H283.21C285.262 249.02 286.928 247.354 286.928 245.303C286.928 243.246 285.262 241.585 283.21 241.585H250.695C248.643 241.585 246.977 243.246 246.977 245.303C246.977 247.354 248.643 249.02 250.695 249.02Z" fill="#4E85DE"/>
<path d="M250.695 261.987H283.21C285.262 261.987 286.928 260.325 286.928 258.269C286.928 256.217 285.262 254.552 283.21 254.552H250.695C248.643 254.552 246.977 256.217 246.977 258.269C246.977 260.321 248.643 261.987 250.695 261.987Z" fill="#72ACFB"/>
<path d="M250.695 274.958H283.21C285.262 274.958 286.928 273.292 286.928 271.24C286.928 269.184 285.262 267.523 283.21 267.523H250.695C248.643 267.523 246.977 269.184 246.977 271.24C246.977 273.292 248.643 274.958 250.695 274.958Z" fill="#72ACFB"/>
<path d="M191.842 255.45H173.245V254.736H191.546L201.338 244.943H213.326V245.657H201.634L191.842 255.45Z" fill="#72ACFB"/>
<path d="M209.465 287.934H185.534L177.78 280.18L178.283 279.672L185.83 287.22H209.465V287.934Z" fill="#72ACFB"/>
<path d="M227.913 249.671H203.107V252.715H227.913V249.671Z" fill="#4E85DE"/>
<path d="M215.508 280.705H195.542V283.749H215.508V280.705Z" fill="#4E85DE"/>
<path d="M28.8337 295.288C35.0835 292.298 41.302 312.192 41.302 312.192C51.9249 326.232 66.7684 307.554 65.3181 328.54C62.7769 365.253 107.577 340.088 86.9098 378.413C66.2431 416.743 105.157 400.085 92.3156 430.993C79.4701 461.901 96.1185 498.763 76.7942 483.614C76.7942 483.614 59.7777 446.299 42.2269 434.756C24.6806 423.212 52.7421 409.509 47.251 393.831C39.2726 371.054 20.0605 371.947 33.9117 347.473C47.7673 322.999 7.59225 305.448 28.8337 295.288Z" fill="url(#paint12_linear_613_5777)"/>
<path d="M82.9094 469.579C74.5314 463.688 64.7256 422.629 64.1464 398.177C63.8455 385.65 60.1414 380.433 56.8773 375.831C53.7569 371.427 51.0585 367.628 52.6299 358.9C55.6336 342.22 47.7405 335.018 47.6597 334.951L48.5711 333.909C48.9213 334.215 57.1422 341.645 53.9903 359.142C52.5222 367.3 54.9422 370.708 58.0043 375.023C61.219 379.558 65.2194 385.192 65.5292 398.141C66.1578 424.384 76.1791 463.145 83.7086 468.439L82.9139 469.574L82.9094 469.579Z" fill="white"/>
<path d="M86.0433 472.623C84.9613 472.623 83.7894 472.497 82.5009 472.237C79.2727 471.581 77.1535 469.88 76.2106 467.172C73.9522 460.716 79.1829 450.223 83.4303 445.168C83.5021 445.082 90.6095 436.395 89.8507 424.353C89.725 422.337 89.514 420.465 89.3299 418.821C88.7956 414.053 88.4095 410.614 90.4569 408.315C92.2573 406.286 95.7414 405.41 102.099 405.379C113.247 405.329 117.656 400.709 121.199 397.005C122.703 395.429 124.126 393.943 125.85 393C131.404 389.965 137.29 389.521 139.841 391.941C141.053 393.09 142.077 395.339 140.07 399.537C138.233 403.376 135.854 405.805 133.941 407.754C131.368 410.38 129.667 412.114 130.551 415.571C130.758 416.379 131 417.201 131.238 418.027C132.958 423.904 134.906 430.567 124.845 435.088C122.707 436.049 120.763 436.812 119.048 437.486C112.026 440.242 107.788 441.908 102.997 452.006C102.072 453.959 101.255 455.813 100.465 457.605C96.6932 466.158 93.8377 472.623 86.0389 472.623H86.0433ZM126.515 394.213C124.975 395.052 123.691 396.399 122.2 397.957C118.478 401.854 113.844 406.708 102.108 406.762C96.2622 406.789 92.9891 407.552 91.494 409.231C89.8552 411.072 90.2144 414.255 90.7083 418.664C90.8924 420.33 91.1034 422.216 91.2336 424.268C92.0283 436.875 84.7997 445.689 84.4943 446.057C80.2874 451.063 75.5281 461.026 77.5171 466.714C78.2894 468.928 80.0629 470.329 82.7792 470.877C92.2528 472.789 94.8704 466.863 99.2031 457.039C99.9978 455.238 100.819 453.375 101.753 451.404C106.773 440.804 111.456 438.967 118.545 436.184C120.247 435.515 122.178 434.76 124.279 433.813C133.241 429.786 131.624 424.254 129.909 418.399C129.662 417.564 129.42 416.729 129.209 415.903C128.131 411.687 130.255 409.518 132.949 406.771C134.884 404.795 137.079 402.555 138.812 398.927C139.724 397.023 140.474 394.441 138.884 392.933C136.792 390.948 131.472 391.492 126.51 394.204L126.515 394.213Z" fill="url(#paint13_linear_613_5777)"/>
<path d="M82.6534 480.62L81.2705 480.548C81.3379 479.246 83.0844 448.607 95.3866 439.641C108.883 429.804 113.139 419.23 115.164 412.136C117.553 403.776 129.707 401.54 130.223 401.446L130.461 402.811C130.344 402.833 118.644 404.988 116.493 412.513C114.41 419.809 110.041 430.67 96.1992 440.759C84.4224 449.343 82.6669 480.305 82.6489 480.62H82.6534Z" fill="url(#paint14_linear_613_5777)"/>
<path d="M110.782 326.21C102.036 323.215 103.854 340.065 100.159 352.533C96.4642 365.002 59.0593 357.971 74.7603 389.198C90.4613 420.42 54.9017 399.641 65.5247 426.89C76.1477 454.134 66.4496 483.278 77.993 475.865C89.5364 468.452 84.4808 434.141 96.4866 430.064C108.492 425.987 110.455 421.233 98.561 410.147C86.6719 399.066 129.716 388.062 119.093 365.68C108.47 343.298 120.88 329.676 110.778 326.21H110.782Z" fill="url(#paint15_linear_613_5777)"/>
<path d="M83.3492 474.554C82.2492 469.889 72.861 428.843 81.6206 423.877C89.3432 419.504 89.1546 402.496 87.9513 386.432C86.8872 372.212 105.143 365.567 105.924 365.293L106.387 366.6C106.207 366.663 88.3464 373.169 89.3342 386.333C90.5734 402.829 90.7036 420.33 82.3076 425.085C75.6537 428.852 81.7778 461.843 84.7007 474.235L83.3537 474.554H83.3492Z" fill="white"/>
<path d="M103.226 459.939L90.7395 507.303H62.8397L50.3579 459.939H103.226Z" fill="url(#paint16_linear_613_5777)"/>
<path d="M103.226 459.939C103.226 459.939 75.7436 465.098 75.7436 507.298H62.8443L50.3625 459.939H103.23H103.226Z" fill="url(#paint17_linear_613_5777)"/>
<path d="M178.7 51.4402V55.4541H139.549V94.61H135.53V51.4402H178.7Z" fill="#BFD4FC"/>
<path d="M533.088 39.7351H501.219V41.9666H533.088V39.7351Z" fill="#BFD4FC"/>
<path d="M533.088 43.9465H501.219V53.3393H533.088V43.9465Z" fill="#BFD4FC"/>
<path d="M498.166 47.516H479.362V48.9213H498.166V47.516Z" fill="#BFD4FC"/>
<path d="M498.166 49.5364H479.362V53.3393H498.166V49.5364Z" fill="#BFD4FC"/>
<path d="M533.788 39.7351H532.387V66.0501H533.788V39.7351Z" fill="#BFD4FC"/>
<path d="M181.295 398.415H141.964V400.75H181.295V398.415Z" fill="#DCD0C8"/>
<path d="M147.24 513H150.688V406.824H147.24V513Z" fill="#6D6865"/>
<path d="M202.478 397.75H175.14V401.086H202.478V397.75Z" fill="#C6BBB5"/>
<path d="M193.988 369.307H183.634V400.75H193.988V369.307Z" fill="#948C87"/>
<path d="M279.326 400.79H127.857V406.824H279.326V400.79Z" fill="#A98E75"/>
<path d="M98.7897 364.247C98.7897 364.247 97.133 387.478 101.672 390.262C104.514 392.004 115.856 397.876 115.519 398.981C115.182 400.081 109.116 408.782 109.116 408.782C109.116 408.782 87.3406 394.437 86.6357 389.92C85.9488 385.507 87.7088 355.905 90.699 354.54C92.9395 353.517 94.1248 354.365 96.9534 356.462C100.918 359.407 98.7897 364.247 98.7897 364.247Z" fill="#EBB35C"/>
<path d="M125.585 498.503C125.585 498.503 124.907 503.203 124.822 503.908C124.737 504.613 117.288 503.491 117.288 503.491L116.686 497.892C116.686 497.892 124.656 497.838 125.585 498.498V498.503Z" fill="#454971"/>
<path d="M124.898 503.311C124.898 503.311 127.26 506.144 129.541 507.379C131.826 508.614 135.414 509.103 136.76 510.383C137.735 511.303 140.307 515.277 130.829 515.196C121.347 515.115 116.776 515.757 115.761 514.235C114.747 512.713 117.23 502.997 117.23 502.997C117.23 502.997 119.475 503.805 124.898 503.316V503.311Z" fill="#2E3048"/>
<path d="M173.308 498.547C173.308 498.547 172.63 503.248 172.545 503.953C172.459 504.658 165.011 503.536 165.011 503.536L164.409 497.941C164.409 497.941 172.378 497.883 173.308 498.547Z" fill="#454971"/>
<path d="M172.625 503.356C172.625 503.356 174.987 506.189 177.268 507.419C179.553 508.654 187.949 509.669 189.301 510.948C190.275 511.869 191.896 515.586 178.556 515.236C169.078 514.989 164.503 515.797 163.489 514.275C162.474 512.753 164.957 503.037 164.957 503.037C164.957 503.037 167.071 503.899 172.625 503.356Z" fill="#2E3048"/>
<path d="M101.556 417.304C101.556 417.304 128.638 421.888 134.753 422.844C140.869 423.805 174.035 432.057 178.184 434.572C181.484 436.574 176.451 484.651 175.279 502.992H162.218L161.27 447.974C145.596 448.364 134.412 444.306 122.995 446.039C111.577 447.772 102.063 450.237 94.8073 440.507C94.8073 440.507 94.5379 419.432 101.56 417.304H101.556Z" fill="#2E3048"/>
<path d="M128.248 503.042L115.519 502.252L114.275 447.974C107.527 448.14 105.215 447.714 99.755 447.054L89.4778 423.163C98.4844 424.964 127.345 432.246 131.193 434.576C134.493 436.579 129.424 484.696 128.248 503.042Z" fill="#2E3048"/>
<path d="M114.024 315.793C114.024 315.793 123.951 313.045 127.74 320.759C131.525 328.463 129.81 343.073 124.808 344.447C119.807 345.821 112.61 344.236 110.535 339.441C108.456 334.646 106.8 327.826 107.298 323.417C107.796 319.003 111.393 316.848 114.028 315.793H114.024Z" fill="#DBA585"/>
<path d="M122.209 342.907C122.209 342.907 122.101 348.771 122.748 350.019C123.394 351.267 108.923 350.953 108.923 350.953C108.923 350.953 111.204 343.913 109.911 337.919C108.631 331.983 122.209 342.903 122.209 342.903V342.907Z" fill="#DBA585"/>
<path d="M109.13 335.701C109.13 335.701 109.907 337.277 113.647 337.021C117.396 336.77 122.335 332.248 123.924 331.844C125.513 331.445 125.608 330.538 125.608 330.538L126.447 332.033L128.077 332.28C128.077 332.28 126.973 327.749 129.384 326.156C131.795 324.562 128.297 311.721 116.085 314.819C116.085 314.819 106.764 316.525 106.638 321.729C106.512 326.932 107.321 332.944 109.13 335.701Z" fill="#3E4148"/>
<path d="M123.511 349.871C123.511 349.871 123.47 347.482 122.388 347.253C121.306 347.024 111.011 345.61 109.687 346.131L109.116 349.283C109.116 349.283 111.676 350.859 123.511 349.871Z" fill="#DCD0C8"/>
<path d="M126.488 329.469C126.209 327.512 123.987 325.262 122.712 328.311C121.437 331.359 123.569 335.795 125.002 335.557C126.429 335.319 126.865 332.118 126.488 329.465V329.469Z" fill="#DBA585"/>
<path d="M166.622 378.076C166.622 378.076 166.609 378.076 166.604 378.076C166.681 378.108 166.69 378.112 166.622 378.076Z" fill="#363957"/>
<path d="M111.128 317.189C111.128 317.189 99.0234 316.624 109.013 335.517L111.128 317.189Z" fill="#3E4148"/>
<path d="M84.1575 509.476L85.0599 512.013L123.102 500.222L121.279 495.09L84.1575 509.476Z" fill="#8C8581"/>
<path d="M124.409 457.052H120.085V498.417H124.409V457.052Z" fill="#8C8581"/>
<path d="M135 454.857H109.494V457.295H135V454.857Z" fill="#5D5955"/>
<path d="M160.669 509.476L159.771 512.012L121.724 500.222L123.399 494.771L160.669 509.476Z" fill="#8C8581"/>
<path d="M133.864 511.739V514.684L121.724 500.222L123.399 494.771L133.864 511.739Z" fill="#8C8581"/>
<path d="M164.225 513C164.225 514.962 162.631 516.556 160.669 516.556C158.707 516.556 157.113 514.962 157.113 513C157.113 511.038 158.707 509.444 160.669 509.444C162.631 509.444 164.225 511.038 164.225 513Z" fill="#B9AFAA"/>
<path d="M134.17 513C134.17 514.962 132.576 516.556 130.614 516.556C128.652 516.556 127.058 514.962 127.058 513C127.058 511.038 128.652 509.444 130.614 509.444C132.576 509.444 134.17 511.038 134.17 513Z" fill="#B9AFAA"/>
<path d="M87.7135 513C87.7135 514.962 86.1196 516.556 84.1575 516.556C82.1955 516.556 80.6016 514.962 80.6016 513C80.6016 511.038 82.191 509.444 84.1575 509.444C86.1241 509.444 87.7135 511.038 87.7135 513Z" fill="#B9AFAA"/>
<path d="M148.012 454.857H96.8187C94.2685 454.857 92.2031 452.792 92.2031 450.241C92.2031 447.691 94.2685 445.621 96.8187 445.621H148.012C150.562 445.621 152.627 447.687 152.627 450.237C152.627 452.787 150.562 454.852 148.012 454.852V454.857Z" fill="#DCD0C8"/>
<path d="M259.944 406.824H256.5V513H259.944V406.824Z" fill="#6D6865"/>
<path d="M149.372 321.392H228.25C231.15 321.392 233.507 323.749 233.507 326.649V379.199C233.507 382.099 231.155 384.456 228.25 384.456H149.372C146.472 384.456 144.115 382.099 144.115 379.199V326.649C144.115 323.749 146.472 321.392 149.372 321.392Z" fill="#B2A8A3"/>
<path d="M230.006 324.8H147.617V374.569H230.006V324.8Z" fill="#F4F6FF"/>
<path d="M226.342 379.266C226.342 380.68 224.856 381.825 223.019 381.825C221.183 381.825 219.701 380.68 219.701 379.266C219.701 377.852 221.187 376.702 223.019 376.702C224.851 376.702 226.342 377.847 226.342 379.266Z" fill="#8C8480"/>
<path d="M207.318 400.871V399.749C207.318 399.749 205.738 392.767 194.581 392.767C183.423 392.767 183.648 400.871 183.648 400.871H207.318Z" fill="#948C87"/>
<path d="M183.509 393.804C183.509 393.804 185.933 393.615 186.822 393.077C187.711 392.542 193.023 388.969 194.271 389.539C195.519 390.113 203.825 392.659 203.538 393.867C203.25 395.084 202.483 394.967 201.895 394.751C201.311 394.536 195.277 393.27 194.747 393.485C194.747 393.485 200.673 395.649 200.696 397.221C200.718 398.797 199.457 399.183 198.895 399.78C198.334 400.377 197.661 401.859 196.134 401.967C194.608 402.083 187.159 399.488 185.623 399.371C184.088 399.255 181.25 399.466 181.057 399.214C180.864 398.963 183.513 393.795 183.513 393.795L183.509 393.804Z" fill="#DBA585"/>
<path d="M139.374 353.175C131.642 351.815 123.506 349.866 123.506 349.866L109.112 349.278C109.112 349.278 95.8984 352.188 90.6992 354.536C90.2053 354.76 90.2053 366.322 88.8494 369.357L93.1641 378.458C93.1641 378.458 95.656 396.485 96.1723 404.503C96.4103 408.185 95.5033 440.076 95.5033 440.076C95.5033 440.076 96.7964 440.714 106.62 441.796C116.444 442.878 140.994 441.405 141.147 440.247C141.3 439.084 136.392 397.037 136.177 394.859C135.845 391.514 137.142 376.074 137.142 376.074C138.992 378.561 143.715 389.79 148.632 395.133C151.523 398.276 165.855 400.202 168.553 400.292C174.43 400.489 185.156 401.657 185.466 401.087C185.718 400.741 186.4 391.564 185.727 391.344C185.139 391.146 165.226 390.001 160.121 387.294C158.253 386.302 152.677 374.139 152.677 374.139C152.677 374.139 143.639 355.093 139.374 353.175Z" fill="#EBB35C"/>
<path d="M88.2073 381.443H109.637C115.223 381.443 119.757 385.978 119.757 391.563V429.04C119.757 434.626 115.223 439.16 109.637 439.16H88.2028C82.6174 439.16 78.0872 434.626 78.0872 429.045V391.568C78.0872 385.983 82.6219 381.448 88.2073 381.448V381.443Z" fill="#DCD0C8"/>
<path d="M112.372 452.558C106.23 452.558 101.246 450.497 97.5596 446.425C89.231 437.23 90.7261 421.062 90.7934 420.379C90.9192 419.104 92.0551 418.17 93.3302 418.3C94.6053 418.426 95.5347 419.562 95.409 420.837C95.391 421.021 94.0665 435.676 101.008 443.327C103.814 446.42 107.532 447.924 112.372 447.924C113.651 447.924 114.693 448.962 114.693 450.246C114.693 451.53 113.656 452.567 112.372 452.567V452.558Z" fill="#DCD0C8"/>
<path d="M154.213 328.764H176.841C177.259 328.764 177.596 329.101 177.596 329.518V330.645C177.596 331.063 177.259 331.4 176.841 331.4H154.213C153.795 331.4 153.458 331.063 153.458 330.645V329.523C153.458 329.105 153.795 328.769 154.213 328.769V328.764Z" fill="#DEDFE6"/>
<path d="M154.213 334.403H176.837C177.254 334.403 177.591 334.74 177.591 335.158V336.28C177.591 336.693 177.254 337.03 176.841 337.03H154.213C153.795 337.03 153.458 336.693 153.458 336.276V335.153C153.458 334.736 153.795 334.399 154.213 334.399V334.403Z" fill="#DEDFE6"/>
<path d="M155.991 340.873H175.059C176.46 340.873 177.596 342.009 177.596 343.41V368.073C177.596 369.474 176.46 370.61 175.059 370.61H155.991C154.594 370.61 153.458 369.474 153.458 368.077V343.41C153.458 342.014 154.594 340.878 155.991 340.878V340.873Z" fill="#DEDFE6"/>
<path d="M186.472 328.764H221.43C223.643 328.764 225.439 330.56 225.439 332.774V366.596C225.439 368.809 223.643 370.609 221.425 370.609H186.472C184.258 370.609 182.462 368.814 182.462 366.6V332.778C182.462 330.565 184.258 328.769 186.472 328.769V328.764Z" fill="#DEDFE6"/>
<path d="M258.489 126.483C251.243 106.221 231.878 93.7749 211.467 94.3855C206.528 94.5337 201.522 95.4496 196.615 97.2051C181.749 102.521 171.085 114.365 166.708 128.356C163.673 138.054 163.655 148.78 167.336 159.08C167.705 160.103 168.104 161.114 168.531 162.097C170.47 166.56 173.012 170.596 176.033 174.148C188.699 189.04 209.72 195.331 229.215 188.358C254.385 179.356 267.491 151.649 258.489 126.479V126.483ZM225.134 176.954C210.515 182.184 194.76 177.461 185.26 166.299C182.997 163.637 181.089 160.611 179.639 157.266C179.315 156.525 179.019 155.771 178.741 155.003C175.979 147.276 175.993 139.235 178.269 131.965C181.556 121.477 189.543 112.596 200.691 108.614C204.369 107.298 208.122 106.616 211.826 106.499C227.128 106.041 241.648 115.371 247.08 130.56C253.829 149.435 244 170.205 225.13 176.954H225.134Z" fill="#72ACFB"/>
<path d="M178.269 131.965L166.708 128.356C171.085 114.365 181.749 102.521 196.615 97.2051C201.522 95.4496 206.528 94.5337 211.467 94.3855L211.831 106.495C208.127 106.611 204.373 107.294 200.696 108.609C189.548 112.596 181.56 121.473 178.274 131.961L178.269 131.965Z" fill="#385988"/>
<path d="M179.638 157.266L168.531 162.101C168.104 161.118 167.704 160.108 167.336 159.084C163.65 148.78 163.673 138.054 166.708 128.36L178.269 131.97C175.997 139.239 175.979 147.28 178.74 155.007C179.019 155.775 179.315 156.534 179.638 157.27V157.266Z" fill="#4772B0"/>
<path d="M176.033 174.148C173.011 170.596 170.47 166.56 168.531 162.097L179.638 157.261C181.089 160.606 182.997 163.637 185.26 166.295L176.029 174.143L176.033 174.148Z" fill="#5886C7"/>
<path d="M286.2 129.438H277.629V190.49H286.2V129.438Z" fill="#DEDEDE"/>
<path d="M307.482 141.843H298.911V190.49H307.482V141.843Z" fill="#DEDEDE"/>
<path d="M328.764 132.715H320.193V190.486H328.764V132.715Z" fill="#DEDEDE"/>
<path d="M350.046 150.737H341.475V190.486H350.046V150.737Z" fill="#DEDEDE"/>
<path d="M371.328 134.587H362.757V190.486H371.328V134.587Z" fill="#DEDEDE"/>
<path d="M392.609 126.165H384.038V190.491H392.609V126.165Z" fill="#DEDEDE"/>
<path d="M413.891 122.649H405.32V190.486H413.891V122.649Z" fill="#DEDEDE"/>
<path d="M286.2 152.188H277.629V190.49H286.2V152.188Z" fill="#DF655A"/>
<path d="M307.482 159.973H298.911V190.49H307.482V159.973Z" fill="#DF655A"/>
<path d="M328.764 154.244H320.193V190.49H328.764V154.244Z" fill="#DF655A"/>
<path d="M350.046 165.549H341.475V190.486H350.046V165.549Z" fill="#DF655A"/>
<path d="M371.328 155.42H362.757V190.49H371.328V155.42Z" fill="#DF655A"/>
<path d="M392.609 150.131H384.038V190.486H392.609V150.131Z" fill="#DF655A"/>
<path d="M413.891 147.931H405.32V190.49H413.891V147.931Z" fill="#DF655A"/>
<path d="M437.373 129.438H428.802V190.49H437.373V129.438Z" fill="#DEDEDE"/>
<path d="M458.655 141.843H450.084V190.49H458.655V141.843Z" fill="#DEDEDE"/>
<path d="M479.937 132.715H471.366V190.486H479.937V132.715Z" fill="#DEDEDE"/>
<path d="M501.219 150.737H492.648V190.486H501.219V150.737Z" fill="#DEDEDE"/>
<path d="M437.373 152.188H428.802V190.49H437.373V152.188Z" fill="#DF655A"/>
<path d="M458.655 159.973H450.084V190.49H458.655V159.973Z" fill="#DF655A"/>
<path d="M479.937 154.244H471.366V190.49H479.937V154.244Z" fill="#DF655A"/>
<path d="M501.219 165.549H492.648V190.486H501.219V165.549Z" fill="#DF655A"/>
<path d="M497.955 99.2839L276.134 99.2839C274.334 99.2839 272.87 97.8202 272.87 96.0198V93.8288C272.87 92.0284 274.334 90.5647 276.134 90.5647L497.955 90.5647C499.755 90.5647 501.219 92.0284 501.219 93.8288V96.0198C501.219 97.8202 499.755 99.2839 497.955 99.2839Z" fill="#72ACFB"/>
<path d="M497.955 114.5L276.134 114.5C274.334 114.5 272.87 113.036 272.87 111.236V109.04C272.87 107.24 274.334 105.776 276.134 105.776L497.955 105.776C499.755 105.776 501.219 107.24 501.219 109.04V111.236C501.219 113.036 499.755 114.5 497.955 114.5Z" fill="#BFD4FC"/>
<g style="mix-blend-mode:hard-light">
<path d="M330.578 216.298H413.793C419.522 216.298 424.173 220.95 424.173 226.679V382.377C424.173 388.106 419.522 392.762 413.788 392.762H330.573C324.844 392.762 320.193 388.111 320.193 382.382V226.683C320.193 220.954 324.844 216.298 330.578 216.298Z" fill="#F4F4F4"/>
</g>
<path d="M327.889 321.558H327.431V379.895H327.889V321.558Z" fill="#72ACFB"/>
<path d="M350.006 321.558H349.548V379.895H350.006V321.558Z" fill="#72ACFB"/>
<path d="M372.118 321.558H371.665V379.895H372.118V321.558Z" fill="#72ACFB"/>
<path d="M394.231 321.558H393.777V379.895H394.231V321.558Z" fill="#72ACFB"/>
<path d="M416.348 321.558H415.894V379.895H416.348V321.558Z" fill="#72ACFB"/>
<path d="M327.66 356.242C327.66 356.242 336.671 363.83 345.381 354.841C354.091 345.852 364.135 342.849 373.016 350.419C381.897 357.984 385.354 347.599 394.235 339.086C403.111 330.569 402.972 325.729 416.123 325.729V379.894H327.664V356.242H327.66Z" fill="url(#paint18_linear_613_5777)"/>
<path d="M355.272 316.7H349.777V318.824H355.272V316.7Z" fill="#72ACFB"/>
<path d="M334.911 316.7H327.431V318.824H334.911V316.7Z" fill="#72ACFB"/>
<path d="M378.664 316.7H371.894V318.824H378.664V316.7Z" fill="#72ACFB"/>
<path d="M400.548 316.7H393.777V318.824H400.548V316.7Z" fill="#72ACFB"/>
<path d="M416.118 316.7H409.348V318.824H416.118V316.7Z" fill="#72ACFB"/>
<path d="M412.253 278.343H382.683V282.083H412.253V278.343Z" fill="url(#paint19_linear_613_5777)"/>
<path d="M409.828 294.022H382.683V297.762H409.828V294.022Z" fill="url(#paint20_linear_613_5777)"/>
<path d="M406.169 286.183H382.683V289.923H406.169V286.183Z" fill="url(#paint21_linear_613_5777)"/>
<path d="M350.998 278.177C353.854 278.177 356.17 275.861 356.17 273.005C356.17 270.148 353.854 267.833 350.998 267.833C348.141 267.833 345.825 270.148 345.825 273.005C345.825 275.861 348.141 278.177 350.998 278.177Z" fill="#72ACFB"/>
<path d="M360.328 289.86V299.692C357.472 300.994 354.298 301.713 350.957 301.713C347.617 301.713 344.438 300.99 341.587 299.692V289.86C341.587 284.683 345.781 280.485 350.957 280.485C356.134 280.485 360.328 284.683 360.328 289.86Z" fill="#72ACFB"/>
<path d="M350.953 302.328C347.595 302.328 344.353 301.628 341.327 300.254C333.025 296.478 327.66 288.149 327.66 279.035C327.66 266.194 338.108 255.741 350.953 255.741C363.798 255.741 374.246 266.189 374.246 279.035C374.246 288.149 368.881 296.478 360.579 300.254C357.549 301.628 354.311 302.328 350.953 302.328ZM350.953 256.972C338.785 256.972 328.89 266.867 328.89 279.035C328.89 287.669 333.972 295.557 341.834 299.131C344.703 300.433 347.77 301.098 350.953 301.098C354.136 301.098 357.203 300.438 360.072 299.131C367.938 295.557 373.016 287.669 373.016 279.035C373.016 266.867 363.12 256.972 350.953 256.972Z" fill="url(#paint22_linear_613_5777)"/>
<path d="M397.162 269.198C389.404 269.198 383.091 262.885 383.091 255.126C383.091 247.368 389.404 241.055 397.162 241.055C404.921 241.055 411.233 247.368 411.233 255.126C411.233 262.885 404.921 269.198 397.162 269.198ZM397.162 243.87C390.957 243.87 385.906 248.921 385.906 255.126C385.906 261.331 390.957 266.382 397.162 266.382C403.367 266.382 408.418 261.331 408.418 255.126C408.418 248.921 403.367 243.87 397.162 243.87Z" fill="#72ACFB"/>
<path d="M371.103 227.078H349.898V230.459H371.103V227.078Z" fill="#72ACFB"/>
<path d="M371.103 235.789H353.027V239.174H371.103V235.789Z" fill="#72ACFB"/>
<path d="M371.103 244.503H342.036V247.884H371.103V244.503Z" fill="#72ACFB"/>
<g style="mix-blend-mode:hard-light">
<path d="M498.601 215.935H433.373C431.927 215.935 430.755 217.106 430.755 218.552V263.554C430.755 264.999 431.927 266.171 433.373 266.171H498.601C500.047 266.171 501.219 264.999 501.219 263.554V218.552C501.219 217.106 500.047 215.935 498.601 215.935Z" fill="#F4F4F4"/>
</g>
<path d="M437.908 229.184H459.571C460.379 229.184 461.035 229.84 461.035 230.648V231.303C461.035 232.111 460.379 232.767 459.571 232.767H437.912C437.104 232.767 436.448 232.111 436.448 231.303V230.648C436.448 229.84 437.104 229.184 437.912 229.184H437.908Z" fill="url(#paint23_linear_613_5777)"/>
<path d="M437.746 221.08H454.421C455.135 221.08 455.714 221.659 455.714 222.373V223.365C455.714 224.079 455.135 224.658 454.421 224.658H437.742C437.028 224.658 436.444 224.079 436.444 223.361V222.373C436.444 221.655 437.028 221.075 437.742 221.075L437.746 221.08Z" fill="url(#paint24_linear_613_5777)"/>
<path d="M436.448 259.234L450.699 244.984L454.956 249.24L470.594 233.602L477.535 240.543L495.692 222.382V259.234H436.448Z" fill="#72ACFB"/>
<path d="M495.526 259.234V230.975L476.799 249.702L470.095 242.995L458.911 254.179L450.434 250.807L436.448 259.234H495.526Z" fill="#558AD8"/>
<path d="M452.994 505.201C452.994 505.201 447.74 512.578 448.463 513.746C449.186 514.913 454.704 515.084 458.072 513.746C461.434 512.408 461.515 503.76 463.033 500.047C463.67 498.494 462.306 493.901 460.393 493.568C458.476 493.236 456.392 494.21 456.392 494.21C456.392 494.21 458.381 499.446 452.998 505.197L452.994 505.201Z" fill="#3A3D5D"/>
<path d="M456.356 494.152C456.356 494.152 455.252 497.295 454.848 500.294C454.516 502.781 451.108 508.066 451.265 508.735C451.427 509.404 455.746 510.01 457.51 508.286C459.27 506.562 460.402 501.556 460.792 498.556C461.152 495.764 461.61 494.385 461.61 494.385C461.61 494.385 458.036 492.315 456.356 494.152Z" fill="#DBA585"/>
<path d="M498.709 505.318C498.709 505.318 493.645 512.574 494.367 513.741C495.09 514.908 500.613 515.079 503.976 513.741C507.334 512.403 507.415 503.756 508.937 500.043C509.575 498.489 508.21 493.896 506.297 493.564C504.38 493.231 502.135 494.278 502.135 494.278C502.135 494.278 504.097 499.562 498.714 505.314L498.709 505.318Z" fill="#3A3D5D"/>
<path d="M502.13 494.282C502.13 494.282 501.726 497.708 501.089 500.128C500.451 502.552 497.007 508.061 497.165 508.73C497.326 509.399 501.645 510.006 503.41 508.281C505.17 506.557 506.53 501.574 506.692 498.552C506.854 495.535 506.292 493.564 506.292 493.564C506.292 493.564 503.814 492.441 502.13 494.278V494.282Z" fill="#DBA585"/>
<path d="M476.83 374.17C476.83 374.17 472.323 396.049 471.29 401.558C470.253 407.067 467.357 433.741 467.047 438.28C466.737 442.815 462.346 459.908 462.553 461.529C462.759 463.149 456.038 495.692 456.038 495.692C456.038 495.692 458.332 497.618 460.752 495.867C461.996 494.965 475.492 465.399 475.492 457.299C475.492 446.102 483.426 431.487 484.45 428.982C493.959 405.711 492.087 398.599 493.33 397.086C494.574 395.573 494.682 398.02 495.405 401.365C496.128 404.714 497.681 433.66 498.611 437.333C499.544 441.006 498.822 453.425 499.338 459.692C499.859 465.956 502.131 494.291 502.131 494.291C502.131 494.291 503.891 497.169 506.36 494.367C506.89 493.766 510.621 462.804 510.724 455.351C510.827 447.898 510.935 437.62 511.137 434.401C513.054 403.515 517.769 399.106 510.342 377.254C496.446 336.329 476.83 374.179 476.83 374.179V374.17Z" fill="#DBA585"/>
<path d="M507.096 368.055C507.096 368.055 519.937 386.804 514.406 426.692C514.406 426.692 483.951 431.016 467.64 421.69C467.64 421.69 474.388 380.568 476.83 374.165C479.273 367.767 507.096 368.055 507.096 368.055Z" fill="#42466C"/>
<path d="M463.172 499.396V507.123H462.211V501.151L463.172 499.396Z" fill="#3A3D5D"/>
<path d="M509.076 499.396V507.123H508.115V501.151L509.076 499.396Z" fill="#3A3D5D"/>
<path d="M491.876 284.912C491.876 284.912 483.278 293.573 486.205 304.726C489.132 315.878 493.838 315.941 499.023 311.146C504.209 306.346 507.262 301.3 507.949 295.692C508.632 290.084 499.724 277.185 491.876 284.912Z" fill="#DBA585"/>
<path d="M490.192 322.11C490.192 322.11 491.467 319.192 492.36 315.91C492.518 315.331 492.661 314.738 492.791 314.15C493.227 312.084 493.411 310.046 492.935 308.65C491.566 304.6 501.533 307.402 501.533 307.402C501.533 307.402 499.603 318.119 501.533 321.733C503.464 325.347 490.192 322.106 490.192 322.106V322.11Z" fill="#DBA585"/>
<path d="M515.461 327.215C513.889 324.081 512.718 323.076 509.687 322.115C507.99 321.58 500.406 319.605 500.406 319.605L491.296 319.273C491.296 319.273 485.033 320.314 480.175 321.998C475.317 323.682 468.946 332.886 468.946 332.886C468.946 332.886 477.733 353.512 479.416 359.43C481.096 365.352 479.978 374.511 479.978 374.511C490.511 380.245 507.393 373.95 507.393 373.95C506.113 369.325 506.059 363.924 506.733 360.094C506.813 359.645 506.899 359.214 507.002 358.81C507.092 358.442 507.217 357.912 507.361 357.32C507.366 357.297 507.375 357.27 507.379 357.243C514.078 357.93 520.355 358.209 520.521 356.866C521.262 350.814 517.62 331.521 515.461 327.22V327.215ZM510.823 350.733C510.553 350.693 509.979 350.693 509.373 350.634C510.118 348.56 510.944 346.719 510.944 346.719C511.42 348.044 513.225 351.092 510.823 350.729V350.733Z" fill="#E6D8D1"/>
<path d="M494.682 291.144C494.682 291.144 498.79 298.619 501.345 301.3C503.9 303.98 503.599 306.104 503.599 306.104C503.599 306.104 513.557 293.82 506.454 286.407C499.351 278.994 490.192 281.98 487.512 288.463C484.831 294.942 485.815 302.858 485.815 302.858C485.815 302.858 485.891 295.252 494.677 291.144H494.682Z" fill="#CD7250"/>
<path d="M497.394 283.313C497.394 283.313 496.397 277.84 504.982 275.663C513.566 273.485 517.423 283.376 516.363 289.411C515.308 295.445 507.967 310.742 511.95 312.735C515.932 314.724 517.486 310.432 517.486 310.432C517.486 310.432 516.242 317.957 510.706 316.215C505.17 314.473 505.916 302.243 506.751 297.367C507.586 292.495 497.394 283.309 497.394 283.309V283.313Z" fill="#CD7250"/>
<path d="M500.159 310.06C500.128 310.14 497.955 315.133 492.361 315.91C492.518 315.331 492.661 314.738 492.792 314.15C492.792 314.15 495.854 314.769 500.159 310.06Z" fill="#997761"/>
<path d="M510.818 346.791C510.818 346.791 510.41 347.658 509.283 351.061C508.138 341.502 508.735 336.523 508.735 336.523C508.861 341.632 510.814 346.791 510.814 346.791H510.818Z" fill="#C8BCB6"/>
<path d="M498.732 282.164C498.732 282.164 504.824 283.336 507.864 288.297C507.864 288.297 507.244 283.807 504.214 282.51C501.183 281.217 498.732 282.169 498.732 282.169V282.164Z" fill="#E6D8D1"/>
<path d="M507.357 357.319C507.213 357.912 507.087 358.442 506.998 358.81C506.899 359.214 506.809 359.645 506.728 360.094C502.957 358.042 500.245 356.439 500.245 356.439C501.26 356.664 507.357 357.319 507.357 357.319Z" fill="#C8BCB6"/>
<path d="M500.914 319.74L490.192 328.481L491.296 319.273C491.296 319.273 497.546 317.926 500.914 319.74Z" fill="#DBA585"/>
<path d="M493.29 326.995L490.192 328.481L500.721 318.042L493.29 326.995Z" fill="#CFC3BC"/>
<path d="M507.99 356.565C506.513 362.68 511.972 376.442 511.972 376.442L501.152 379.823C499.594 380.308 497.955 379.356 497.614 377.762C496.168 371.027 492.769 354.451 492.361 345.237C491.844 333.479 500.406 319.605 500.406 319.605C515.622 322.218 511.451 345.237 511.451 345.237C511.451 345.237 510.899 346.688 510.158 348.955C509.97 349.525 509.777 350.149 509.57 350.809C509.049 352.511 508.488 354.487 507.985 356.565H507.99Z" fill="#4C507D"/>
<path d="M490.219 319.776L490.407 319.273C490.407 319.273 482.613 320.458 478.653 322.434C474.693 324.414 467.11 334.628 467.11 334.628L477.023 347.72C477.037 357.782 475.402 375.67 475.402 375.67L479.937 378.283C481.154 378.988 482.68 378.126 482.707 376.72C482.838 369.918 483.138 353.764 483.3 345.938C483.507 335.876 490.686 319.6 490.686 319.6C490.529 319.654 490.367 319.713 490.214 319.771L490.219 319.776Z" fill="#4C507D"/>
<path d="M476.089 366.95C476.089 366.95 483.569 367.242 484.732 366.95C485.895 366.659 493.654 363.296 494.121 359.969C494.588 356.646 476.094 362.95 476.094 362.95V366.95H476.089Z" fill="#DBA585"/>
<path d="M499.288 356.565L468.946 353.014L482.654 364.166L499.288 356.565Z" fill="#6D76BA"/>
<path d="M482.654 364.167L499.288 358.496V356.565L482.092 362.079L482.654 364.167Z" fill="#363957"/>
<path d="M490.475 350.993C490.475 350.993 487.965 350.993 486.56 350.706C485.473 350.486 482.77 350.791 482.079 351.402C481.387 352.013 479.201 356.264 478.783 356.525C478.37 356.785 478.994 357.387 479.722 357.086C479.722 357.086 480.391 358.945 482.038 358.249C483.686 357.553 484.804 356.031 485.671 355.762C486.533 355.497 491.561 354.141 491.561 354.141C491.561 354.141 491.768 350.54 490.475 350.993Z" fill="#DBA585"/>
<path d="M491.871 317.575L486.093 326.721L483.304 328.481L489.801 319.371L491.871 317.575Z" fill="#F3E4DC"/>
<path d="M486.093 326.721L490.192 328.481L491.296 319.273L491.871 317.575L486.093 326.721Z" fill="#CFC3BC"/>
<path d="M477.005 362.672C477.005 362.672 476.696 366.533 477.005 367.345C477.005 367.345 458.292 365.473 456.55 362.856C454.808 360.238 454.866 357.064 454.866 357.064L477.005 362.672Z" fill="#4C507D"/>
<path d="M482.654 364.167L473.809 331.269L440.157 327.718L449.384 357.998L482.654 364.167Z" fill="#2A2B41"/>
<path d="M500.721 318.042L493.29 326.995L497.358 330.623L501.744 319.901L500.721 318.042Z" fill="#F3E4DC"/>
<path d="M510.41 348.196L510.158 348.955C509.97 349.525 509.777 350.145 509.57 350.805C508.133 351.258 495.706 350.342 495.706 350.342C495.706 350.342 506.109 347.9 510.41 348.192V348.196Z" fill="#414469"/>
<path d="M509.691 350.562C507.689 350.414 504.411 350.199 501.726 350.185C497.551 350.167 490.412 350.634 490.412 350.634L491.261 355.097C491.261 355.097 503.913 357.153 510.823 357.638C510.823 357.638 519.942 358.685 520.62 357.324C521.298 355.964 520.395 347.231 518.914 339.356C517.432 331.485 515.905 326.955 514.092 324.521C512.278 322.088 502.701 320.193 502.701 320.193L510.823 346.786C510.823 346.786 511.99 349.162 511.927 350.185C511.909 350.495 511.694 350.643 511.402 350.697C511.196 350.684 510.747 350.643 510.127 350.594L509.691 350.558V350.562Z" fill="#4C507D"/>
</g>
<defs>
<linearGradient id="paint0_linear_613_5777" x1="0" y1="278.146" x2="556.291" y2="278.146" gradientUnits="userSpaceOnUse">
<stop stop-color="#81D3E4"/>
<stop offset="1" stop-color="#6076FA"/>
</linearGradient>
<linearGradient id="paint1_linear_613_5777" x1="529.388" y1="256.478" x2="106.719" y2="16.7741" gradientUnits="userSpaceOnUse">
<stop stop-color="#363980"/>
<stop offset="1" stop-color="#2A8FEB"/>
</linearGradient>
<linearGradient id="paint2_linear_613_5777" x1="556.291" y1="337.353" x2="61.4704" y2="337.353" gradientUnits="userSpaceOnUse">
<stop stop-color="#363980"/>
<stop offset="1" stop-color="#2A8FEB"/>
</linearGradient>
<linearGradient id="paint3_linear_613_5777" x1="178.809" y1="391.392" x2="596.027" y2="391.392" gradientUnits="userSpaceOnUse">
<stop stop-color="#363980"/>
<stop offset="1" stop-color="#2A8FEB"/>
</linearGradient>
<linearGradient id="paint4_linear_613_5777" x1="0" y1="134.237" x2="238.411" y2="134.237" gradientUnits="userSpaceOnUse">
<stop stop-color="#363980"/>
<stop offset="1" stop-color="#2A8FEB"/>
</linearGradient>
<linearGradient id="paint5_linear_613_5777" x1="178.635" y1="207.691" x2="49.5818" y2="200.746" gradientUnits="userSpaceOnUse">
<stop stop-color="#4A612F"/>
<stop offset="1" stop-color="#769A42"/>
</linearGradient>
<linearGradient id="paint6_linear_613_5777" x1="182.69" y1="265.853" x2="122.531" y2="197.737" gradientUnits="userSpaceOnUse">
<stop stop-color="#4A612F"/>
<stop offset="1" stop-color="#769A42"/>
</linearGradient>
<linearGradient id="paint7_linear_613_5777" x1="168.379" y1="168.074" x2="107.289" y2="164.787" gradientUnits="userSpaceOnUse">
<stop stop-color="#4A612F"/>
<stop offset="1" stop-color="#769A42"/>
</linearGradient>
<linearGradient id="paint8_linear_613_5777" x1="165.777" y1="216.407" x2="121.904" y2="138.702" gradientUnits="userSpaceOnUse">
<stop stop-color="#4A612F"/>
<stop offset="1" stop-color="#769A42"/>
</linearGradient>
<linearGradient id="paint9_linear_613_5777" x1="321.544" y1="350.926" x2="122.047" y2="350.926" gradientUnits="userSpaceOnUse">
<stop stop-color="#EEBE63"/>
<stop offset="1" stop-color="#DC3B57"/>
</linearGradient>
<linearGradient id="paint10_linear_613_5777" x1="321.54" y1="361.832" x2="122.047" y2="361.832" gradientUnits="userSpaceOnUse">
<stop stop-color="#EEBE63"/>
<stop offset="1" stop-color="#DC3B57"/>
</linearGradient>
<linearGradient id="paint11_linear_613_5777" x1="321.54" y1="372.738" x2="122.047" y2="372.738" gradientUnits="userSpaceOnUse">
<stop stop-color="#EEBE63"/>
<stop offset="1" stop-color="#DC3B57"/>
</linearGradient>
<linearGradient id="paint12_linear_613_5777" x1="22.4985" y1="391.061" x2="94.978" y2="391.061" gradientUnits="userSpaceOnUse">
<stop stop-color="#81D3E4"/>
<stop offset="1" stop-color="#6076FA"/>
</linearGradient>
<linearGradient id="paint13_linear_613_5777" x1="75.6673" y1="431.501" x2="141.206" y2="431.501" gradientUnits="userSpaceOnUse">
<stop stop-color="#81D3E4"/>
<stop offset="1" stop-color="#6076FA"/>
</linearGradient>
<linearGradient id="paint14_linear_613_5777" x1="81.2705" y1="441.033" x2="130.461" y2="441.033" gradientUnits="userSpaceOnUse">
<stop stop-color="#81D3E4"/>
<stop offset="1" stop-color="#6076FA"/>
</linearGradient>
<linearGradient id="paint15_linear_613_5777" x1="63.5043" y1="401.446" x2="120.795" y2="401.446" gradientUnits="userSpaceOnUse">
<stop stop-color="#81D3E4"/>
<stop offset="1" stop-color="#6076FA"/>
</linearGradient>
<linearGradient id="paint16_linear_613_5777" x1="50.3579" y1="483.619" x2="103.226" y2="483.619" gradientUnits="userSpaceOnUse">
<stop stop-color="#E59148"/>
<stop offset="1" stop-color="#F1CC52"/>
</linearGradient>
<linearGradient id="paint17_linear_613_5777" x1="50.3581" y1="483.619" x2="103.226" y2="483.619" gradientUnits="userSpaceOnUse">
<stop stop-color="#B37239"/>
<stop offset="1" stop-color="#F1CC52"/>
</linearGradient>
<linearGradient id="paint18_linear_613_5777" x1="327.66" y1="352.812" x2="416.123" y2="352.812" gradientUnits="userSpaceOnUse">
<stop stop-color="#81D3E4"/>
<stop offset="1" stop-color="#6076FA"/>
</linearGradient>
<linearGradient id="paint19_linear_613_5777" x1="382.683" y1="280.216" x2="412.253" y2="280.216" gradientUnits="userSpaceOnUse">
<stop stop-color="#81D3E4"/>
<stop offset="1" stop-color="#6076FA"/>
</linearGradient>
<linearGradient id="paint20_linear_613_5777" x1="382.683" y1="295.894" x2="409.828" y2="295.894" gradientUnits="userSpaceOnUse">
<stop stop-color="#81D3E4"/>
<stop offset="1" stop-color="#6076FA"/>
</linearGradient>
<linearGradient id="paint21_linear_613_5777" x1="382.683" y1="288.055" x2="406.169" y2="288.055" gradientUnits="userSpaceOnUse">
<stop stop-color="#81D3E4"/>
<stop offset="1" stop-color="#6076FA"/>
</linearGradient>
<linearGradient id="paint22_linear_613_5777" x1="327.66" y1="279.039" x2="374.246" y2="279.039" gradientUnits="userSpaceOnUse">
<stop stop-color="#D3D8DE"/>
<stop offset="1" stop-color="white"/>
</linearGradient>
<linearGradient id="paint23_linear_613_5777" x1="436.448" y1="230.976" x2="461.035" y2="230.976" gradientUnits="userSpaceOnUse">
<stop stop-color="#72ACFB"/>
<stop offset="1" stop-color="#5286D4"/>
</linearGradient>
<linearGradient id="paint24_linear_613_5777" x1="0.00023155" y1="222.871" x2="455.714" y2="222.871" gradientUnits="userSpaceOnUse">
<stop stop-color="#72ACFB"/>
<stop offset="1" stop-color="#5286D4"/>
</linearGradient>
<clipPath id="clip0_613_5777">
<rect width="596.026" height="600" fill="white"/>
</clipPath>
</defs>
</svg>
