<svg width="64" height="64" viewBox="0 0 64 64" fill="none" xmlns="http://www.w3.org/2000/svg">
<path d="M31.565 57C29.115 57 27.13 55.015 27.13 52.565V11.435C27.13 8.985 29.115 7 31.565 7C34.015 7 36 8.985 36 11.435V52.565C36 55.015 34.015 57 31.565 57Z" fill="#F99E21"/>
<path d="M31.565 57C29.115 57 27.13 55.015 27.13 52.565V32.0001C27.13 29.5501 29.115 27.5651 31.565 27.5651C34.015 27.5651 36 29.5501 36 32.0001V52.565C36 55.015 34.015 57 31.565 57Z" fill="#3163D4"/>
<path d="M15.435 44.5C12.985 44.5 11 42.515 11 40.065V23.935C11 21.485 12.985 19.5 15.435 19.5C17.885 19.5 19.87 21.485 19.87 23.935V40.065C19.87 42.515 17.885 44.5 15.435 44.5Z" fill="#F99E21"/>
<path d="M47.695 44.5C45.245 44.5 43.26 42.515 43.26 40.065V23.935C43.26 21.485 45.245 19.5 47.695 19.5C50.145 19.5 52.13 21.485 52.13 23.935V40.065C52.13 42.515 50.145 44.5 47.695 44.5Z" fill="#3163D4"/>
<path d="M15.435 44.5C17.8844 44.5 19.87 42.5144 19.87 40.065C19.87 37.6156 17.8844 35.63 15.435 35.63C12.9856 35.63 11 37.6156 11 40.065C11 42.5144 12.9856 44.5 15.435 44.5Z" fill="#3163D4"/>
</svg>
